<mxfile host="app.diagrams.net" modified="2021-06-28T06:59:21.404Z" agent="5.0 (Windows NT 10.0; Win64; x64) AppleWebKit/537.36 (KHTML, like Gecko) Chrome/91.0.4472.114 Safari/537.36 Edg/91.0.864.59" etag="G5K7QMiv_zIloxU7b72e" version="14.8.1" type="github">
  <diagram id="FfwNQU7mV5R-qZMDg7jB" name="Page-1">
    <mxGraphModel dx="723" dy="402" grid="1" gridSize="10" guides="1" tooltips="1" connect="1" arrows="1" fold="1" page="1" pageScale="1" pageWidth="827" pageHeight="1169" math="0" shadow="0">
      <root>
        <mxCell id="0" />
        <mxCell id="1" parent="0" />
        <mxCell id="jNwXZXlprCyeeHE6RzLd-26" value="" style="rounded=0;whiteSpace=wrap;html=1;fillColor=none;" vertex="1" parent="1">
          <mxGeometry x="180" y="30" width="730" height="590" as="geometry" />
        </mxCell>
        <mxCell id="VVUNpJ8yqMcwwen5zIbT-1" value="Administrador&lt;br&gt;" style="shape=umlActor;verticalLabelPosition=bottom;verticalAlign=top;html=1;outlineConnect=0;" parent="1" vertex="1">
          <mxGeometry x="60" y="480" width="30" height="60" as="geometry" />
        </mxCell>
        <mxCell id="jNwXZXlprCyeeHE6RzLd-3" value="Recursos Humanos" style="shape=umlActor;verticalLabelPosition=bottom;verticalAlign=top;html=1;outlineConnect=0;" vertex="1" parent="1">
          <mxGeometry x="80" y="100" width="30" height="60" as="geometry" />
        </mxCell>
        <mxCell id="jNwXZXlprCyeeHE6RzLd-7" value="Gestionar" style="ellipse;whiteSpace=wrap;html=1;strokeColor=#82b366;fillColor=#B9E0A5;" vertex="1" parent="1">
          <mxGeometry x="440" y="50" width="90" height="50" as="geometry" />
        </mxCell>
        <mxCell id="jNwXZXlprCyeeHE6RzLd-8" value="Gestionar" style="ellipse;whiteSpace=wrap;html=1;strokeColor=#82b366;fillColor=#B9E0A5;" vertex="1" parent="1">
          <mxGeometry x="650" y="460" width="90" height="40" as="geometry" />
        </mxCell>
        <mxCell id="jNwXZXlprCyeeHE6RzLd-9" value="Gestionar" style="ellipse;whiteSpace=wrap;html=1;strokeColor=#82b366;fillColor=#B9E0A5;" vertex="1" parent="1">
          <mxGeometry x="610" y="270" width="90" height="40" as="geometry" />
        </mxCell>
        <mxCell id="jNwXZXlprCyeeHE6RzLd-30" style="edgeStyle=orthogonalEdgeStyle;rounded=0;orthogonalLoop=1;jettySize=auto;html=1;entryX=0.5;entryY=1;entryDx=0;entryDy=0;startArrow=none;startFill=0;endArrow=block;endFill=0;startSize=8;endSize=14;strokeWidth=3;" edge="1" parent="1" source="jNwXZXlprCyeeHE6RzLd-10" target="jNwXZXlprCyeeHE6RzLd-7">
          <mxGeometry relative="1" as="geometry">
            <Array as="points">
              <mxPoint x="665" y="150" />
              <mxPoint x="485" y="150" />
            </Array>
          </mxGeometry>
        </mxCell>
        <mxCell id="jNwXZXlprCyeeHE6RzLd-10" value="Bancos" style="ellipse;whiteSpace=wrap;html=1;fillColor=#dae8fc;strokeColor=#D5E8D4;" vertex="1" parent="1">
          <mxGeometry x="620" y="180" width="90" height="50" as="geometry" />
        </mxCell>
        <mxCell id="jNwXZXlprCyeeHE6RzLd-23" style="edgeStyle=orthogonalEdgeStyle;rounded=0;orthogonalLoop=1;jettySize=auto;html=1;startArrow=none;startFill=0;endArrow=block;endFill=0;startSize=8;endSize=14;strokeWidth=3;entryX=0.5;entryY=1;entryDx=0;entryDy=0;" edge="1" parent="1" source="jNwXZXlprCyeeHE6RzLd-11" target="jNwXZXlprCyeeHE6RzLd-7">
          <mxGeometry relative="1" as="geometry">
            <mxPoint x="426" y="130" as="targetPoint" />
            <Array as="points">
              <mxPoint x="560" y="150" />
              <mxPoint x="485" y="150" />
            </Array>
          </mxGeometry>
        </mxCell>
        <mxCell id="jNwXZXlprCyeeHE6RzLd-11" value="Servicios" style="ellipse;whiteSpace=wrap;html=1;fillColor=#dae8fc;strokeColor=#D5E8D4;" vertex="1" parent="1">
          <mxGeometry x="520" y="180" width="90" height="50" as="geometry" />
        </mxCell>
        <mxCell id="jNwXZXlprCyeeHE6RzLd-22" style="edgeStyle=orthogonalEdgeStyle;rounded=0;orthogonalLoop=1;jettySize=auto;html=1;entryX=0.5;entryY=1;entryDx=0;entryDy=0;startArrow=none;startFill=0;endArrow=block;endFill=0;startSize=8;endSize=14;strokeWidth=3;" edge="1" parent="1" source="jNwXZXlprCyeeHE6RzLd-12" target="jNwXZXlprCyeeHE6RzLd-7">
          <mxGeometry relative="1" as="geometry">
            <Array as="points">
              <mxPoint x="465" y="150" />
              <mxPoint x="485" y="150" />
            </Array>
          </mxGeometry>
        </mxCell>
        <mxCell id="jNwXZXlprCyeeHE6RzLd-12" value="Zonas" style="ellipse;whiteSpace=wrap;html=1;fillColor=#dae8fc;strokeColor=#D5E8D4;" vertex="1" parent="1">
          <mxGeometry x="420" y="180" width="90" height="50" as="geometry" />
        </mxCell>
        <mxCell id="jNwXZXlprCyeeHE6RzLd-20" style="edgeStyle=orthogonalEdgeStyle;rounded=0;orthogonalLoop=1;jettySize=auto;html=1;entryX=0.5;entryY=1;entryDx=0;entryDy=0;startArrow=none;startFill=0;endArrow=block;endFill=0;strokeWidth=3;startSize=8;endSize=14;" edge="1" parent="1" source="jNwXZXlprCyeeHE6RzLd-13" target="jNwXZXlprCyeeHE6RzLd-7">
          <mxGeometry relative="1" as="geometry">
            <Array as="points">
              <mxPoint x="371" y="150" />
              <mxPoint x="485" y="150" />
            </Array>
          </mxGeometry>
        </mxCell>
        <mxCell id="jNwXZXlprCyeeHE6RzLd-13" value="Áreas de la empresa" style="ellipse;whiteSpace=wrap;html=1;fillColor=#dae8fc;strokeColor=#D5E8D4;" vertex="1" parent="1">
          <mxGeometry x="324" y="180" width="90" height="50" as="geometry" />
        </mxCell>
        <mxCell id="jNwXZXlprCyeeHE6RzLd-17" style="edgeStyle=orthogonalEdgeStyle;rounded=0;orthogonalLoop=1;jettySize=auto;html=1;strokeWidth=3;endArrow=block;endFill=0;endSize=14;" edge="1" parent="1" source="jNwXZXlprCyeeHE6RzLd-14" target="jNwXZXlprCyeeHE6RzLd-7">
          <mxGeometry relative="1" as="geometry">
            <Array as="points">
              <mxPoint x="276" y="150" />
              <mxPoint x="485" y="150" />
            </Array>
          </mxGeometry>
        </mxCell>
        <mxCell id="jNwXZXlprCyeeHE6RzLd-14" value="Empresas" style="ellipse;whiteSpace=wrap;html=1;fillColor=#dae8fc;strokeColor=#D5E8D4;" vertex="1" parent="1">
          <mxGeometry x="226" y="180" width="90" height="50" as="geometry" />
        </mxCell>
        <mxCell id="jNwXZXlprCyeeHE6RzLd-18" value="Personal" style="ellipse;whiteSpace=wrap;html=1;fillColor=#dae8fc;strokeColor=#D5E8D4;" vertex="1" parent="1">
          <mxGeometry x="720" y="180" width="90" height="50" as="geometry" />
        </mxCell>
        <mxCell id="jNwXZXlprCyeeHE6RzLd-31" style="edgeStyle=orthogonalEdgeStyle;rounded=0;orthogonalLoop=1;jettySize=auto;html=1;entryX=0.5;entryY=1;entryDx=0;entryDy=0;startArrow=none;startFill=0;endArrow=block;endFill=0;startSize=10;endSize=14;strokeWidth=3;fillColor=#f5f5f5;" edge="1" parent="1" source="jNwXZXlprCyeeHE6RzLd-18" target="jNwXZXlprCyeeHE6RzLd-7">
          <mxGeometry relative="1" as="geometry">
            <Array as="points">
              <mxPoint x="765" y="150" />
              <mxPoint x="485" y="150" />
            </Array>
          </mxGeometry>
        </mxCell>
      </root>
    </mxGraphModel>
  </diagram>
</mxfile>
